<svg viewBox="0 0 24 24" fill="none" xmlns="http://www.w3.org/2000/svg">
<g clip-path="url(#clip0_70_5188)">
<path d="M10.801 19.6474C9.42143 18.0755 9.32265 17.9707 8.56533 17.2745C7.89886 16.6615 7.14557 15.9716 7.03803 15.8755C6.97668 15.8205 6.95808 15.7753 6.9383 15.6327C6.9248 15.5363 6.8715 15.1418 6.81974 14.7561C6.55052 12.7518 6.23061 11.5225 5.68626 10.4C5.33567 9.67723 4.97312 9.1567 4.38719 8.53554C4.16511 8.29988 3.991 8.10719 4.00036 8.10719C4.05709 8.10719 4.9518 8.60997 5.44298 8.91786C6.481 9.56864 7.34361 10.3164 8.02465 11.1557C8.53276 11.782 8.99705 12.6101 9.32549 13.4763C9.39537 13.6609 9.46075 13.8218 9.47058 13.8336C9.49083 13.8581 9.50789 13.6888 9.55136 13.0298C9.58795 12.4754 9.56699 11.3605 9.50943 10.8045C9.32276 9.00024 8.94067 7.70932 7.59364 4.33297C7.31885 3.64424 7.09737 3.07168 7.10128 3.06054C7.10886 3.03899 7.86522 4.24275 8.51819 5.31552C10.3035 8.24846 11.3769 10.4416 12.063 12.5578C12.6485 14.3636 12.8613 15.6604 12.8296 17.2288C12.8026 18.5543 12.601 19.5666 12.1386 20.6966C12.0704 20.8635 12.0087 21 12.0016 21C11.9944 21 11.4541 20.3914 10.801 19.6474ZM13.7584 13.3039C13.5713 12.6573 13.3269 11.9484 12.9734 11.0259L12.6706 10.2358L12.7571 10.0144C12.9217 9.593 13.2728 8.83987 13.5473 8.31947C14.0578 7.35235 14.5704 6.51377 15.5241 5.08623C15.8463 4.60401 16.2952 3.9318 16.5219 3.59209C16.7483 3.25249 16.9337 2.98623 16.9337 3.00055C16.9337 3.01488 16.7563 3.46881 16.5394 4.00929C15.7297 6.02678 15.3494 7.08204 15.0691 8.08895C14.7464 9.24717 14.5872 10.1815 14.5349 11.2225C14.508 11.7595 14.452 12.0109 14.1298 13.0395C14.0215 13.3861 13.9326 13.6859 13.9326 13.7055C13.9326 13.7253 13.9236 13.7471 13.9125 13.7542C13.9015 13.7613 13.8321 13.5586 13.7584 13.3039ZM14.5501 18.2306C14.5544 18.1444 14.5634 17.8007 14.5702 17.4668C14.5832 16.826 14.5915 16.7633 14.7544 16.0712C15.0761 14.7038 15.4208 13.6769 15.9046 12.6443C16.6999 10.9468 17.6883 9.69877 18.9927 8.74451C19.2386 8.56455 19.9611 8.10719 19.9994 8.10719C20.0108 8.10719 19.8502 8.28715 19.6426 8.50714C19.0661 9.11765 18.7186 9.60451 18.3812 10.274C17.7661 11.495 17.455 12.6934 17.1435 15.0392L17.042 15.804L15.7922 17.0958L14.5424 18.3876L14.5501 18.2306Z" fill="{props.color2}"/>
</g>
<defs>
<clipPath id="clip0_70_5188">
<rect width="24" height="24" fill="white"/>
</clipPath>
</defs>
</svg>
