<svg viewBox="0 0 24 24" fill="none" xmlns="http://www.w3.org/2000/svg">
<path d="M10.8213 19.3372C10.1932 18.8625 9.67613 18.4652 9.67227 18.4544C9.66675 18.4387 11.2883 10.3128 11.3934 9.82914L11.4216 9.69966L11.4861 9.75558C11.5213 9.78624 11.6515 9.90999 11.7752 10.0304L12.0001 10.2495L12.2916 9.95863C12.452 9.7987 12.5833 9.67462 12.5833 9.68278C12.5833 9.69094 12.9769 11.6615 13.4581 14.0616C13.9392 16.4618 14.333 18.435 14.333 18.4466C14.333 18.4749 12.0578 20.1801 12.0049 20.1915C11.9795 20.197 11.5224 19.867 10.8214 19.3373L10.8213 19.3372ZM14.9567 13.1118C14.9477 13.0968 14.2991 10.8513 13.8928 9.42833L13.79 9.068L14.6657 8.19216L15.5417 7.3162L18.54 7.32183C20.189 7.32491 21.6202 7.3344 21.7204 7.343L21.9025 7.35844L21.6353 7.56723C20.6209 8.36002 19.6981 8.92716 18.9016 9.24734C18.5858 9.37429 18.17 9.50763 17.9672 9.54723C17.7993 9.57988 16.863 9.62466 16.2466 9.62951C16.1698 9.63017 16.1069 9.63944 16.1069 9.65024C16.1069 9.66094 16.4952 10.1879 16.9698 10.8213C17.4444 11.4547 17.8244 11.9809 17.8143 11.9906C17.7972 12.0069 15.0019 13.13 14.9783 13.13C14.9725 13.13 14.9627 13.1219 14.9567 13.1118ZM11.7874 8.16624C11.5627 7.90451 9.49359 5.42179 9.24289 5.11319L9.09807 4.93495L9.22447 4.68866C9.29396 4.55311 9.42807 4.29745 9.52227 4.12032L9.69366 3.79826H11.6549C12.7336 3.79826 13.7527 3.79164 13.9198 3.78348L14.2236 3.76892L14.4301 4.11767C14.6744 4.53039 14.8919 4.92083 14.8919 4.94664C14.8919 4.96319 13.1595 7.04719 12.3363 8.02087L12.0021 8.41616L11.7874 8.16624ZM7.6026 12.5706C6.83473 12.2633 6.19866 12.0039 6.18918 11.9939C6.17969 11.984 6.51068 11.5218 6.92484 10.9673C7.81138 9.77995 7.90204 9.65576 7.88969 9.64341C7.88462 9.63833 7.50333 9.62245 7.0423 9.60833C6.50329 9.59179 6.1412 9.56973 6.02738 9.5469C5.56524 9.45392 4.77829 9.14024 4.22385 8.828C3.62054 8.4883 2.06682 7.40664 2.11282 7.35844C2.12815 7.34256 3.23274 7.33153 5.30032 7.32646L8.46421 7.31874L9.33697 8.19326L10.2097 9.06778L10.0448 9.64683C9.35418 12.0716 9.04149 13.1302 9.01602 13.1295C9.00664 13.1291 8.37057 12.8777 7.60271 12.5705L7.6026 12.5706Z" fill="#4E4E4E"/>
</svg>
