<svg xmlns="http://www.w3.org/2000/svg" width="170" height="80" viewBox="0 0 170 80" fill="none">
<path d="M81.2746 38.9812H62.6067V41.3257H81.2746V38.9812Z" fill="#DE2E39"/>
<path d="M0 0V58.1741H135.919L143.224 80L170 0H0ZM81.1659 9.48722H91.3678V28.7845H81.1659V9.48722ZM52.4048 9.48722H62.5529V20.0878L76.4455 18.4245V25.7857L52.406 28.7845V9.48722H52.4048ZM48.5138 48.6918H9.44207V40.5131H48.5138V48.6918ZM45.1079 33.9694H35.5034L37.2967 17.6659H9.44207V9.48722H48.5138L45.1079 33.9694ZM91.4765 48.6869H52.4048V31.62H91.4765V48.6869ZM120.438 48.6869L95.3675 48.6918V9.48722H119.896V17.7212H105.569V25.0259H119.896V33.2047H105.569V40.5119L120.438 40.507V48.6869ZM134.439 48.6869H124.237V9.48722H134.439V48.6869ZM143.715 48.6869H138.466V40.5082H146.453L143.715 48.6869ZM148.641 33.9694H138.439L143.878 17.7212H138.439V9.48722H156.836L148.641 33.9694Z" fill="#DE2E39"/>
</svg>
