<svg width="201" height="200" viewBox="0 0 201 200" fill="none" xmlns="http://www.w3.org/2000/svg">
<path d="M91.6912 28.4211C96.4631 20.0702 98.1532 15.9942 98.4017 15C102.627 29.9123 111.95 60.149 114.805 69.4298C117.788 79.1228 120.025 85.8333 120.77 88.0702C117.042 88.0702 111.077 87.3246 111.077 93.2895C111.077 100.746 118.533 108.947 118.533 115.658C118.533 123.86 117.042 128.333 111.077 136.535C106.305 143.096 102.627 150.702 101.384 153.684C100.39 151.199 97.0596 144.289 91.6912 136.535C86.3228 128.781 81.2526 123.114 81.2526 114.167C81.2526 98.5088 91.6912 101.491 91.6912 93.2895C91.6912 86.7281 83.2409 85.5848 79.0158 85.8333C79.2643 84.0936 80.3579 79.5702 82.7438 75.3947C85.1298 71.2193 89.7029 66.6959 91.6912 64.9561V44.0789H82.7438L91.6912 28.4211Z" fill="#F0415A"/>
<path d="M46.5014 71.6667C50.9751 67.6404 56.1944 64.9561 62.1593 62.7193C54.7032 76.886 49.4839 91.0526 49.4839 114.167C49.4839 139.518 61.4137 138.772 64.3962 136.535C66.7822 134.746 67.6272 128.582 66.633 125.351C71.1067 127.588 80.9488 133.553 84.5278 139.518C96.4576 155.921 92.7295 178.289 92.7295 176.053C92.7295 173.816 89.0014 168.596 84.5278 164.868C79.9097 161.02 74.9266 158.066 71.8523 161.14C69.6155 163.377 73.3436 166.36 79.3085 170.833C79.3085 177.544 77.2825 182.552 74.8348 185C71.8524 181.272 68.8699 178.289 66.633 176.053C59.3085 168.728 60.6681 163.377 51.7207 166.36C47.1134 167.895 41.2821 173.816 37.0673 169.342C38.2997 167.851 39.791 166.36 42.7734 163.377L47.2471 158.904C43.519 156.915 34.7207 150.553 29.3523 141.009C23.9839 131.465 25.1272 113.173 26.3699 105.219C28.6067 104.225 34.4225 100.895 39.7909 95.5263C45.1593 90.1579 37.5541 87.8216 33.0804 87.3246C35.3172 83.845 40.5365 77.0351 46.5014 71.6667Z" fill="#F0415A"/>
<path d="M154.129 71.6667C149.655 67.6404 144.436 64.9561 138.471 62.7193C145.927 76.886 151.147 91.0526 151.147 114.167C151.147 139.518 139.217 138.772 136.234 136.535C133.848 134.746 133.003 128.582 133.998 125.351C129.524 127.588 119.682 133.553 116.103 139.518C104.173 155.921 107.901 178.289 107.901 176.053C107.901 173.816 111.629 168.596 116.103 164.868C120.721 161.02 125.704 158.066 128.778 161.14C131.015 163.377 127.287 166.36 121.322 170.833C121.322 177.544 123.348 182.552 125.796 185C128.778 181.272 131.761 178.289 133.998 176.053C141.322 168.728 139.962 163.377 148.91 166.36C153.517 167.895 159.348 173.816 163.563 169.342C162.331 167.851 160.84 166.36 157.857 163.377L153.383 158.904C157.112 156.915 165.91 150.553 171.278 141.009C176.647 131.465 175.503 113.173 174.261 105.219C172.024 104.225 166.208 100.895 160.84 95.5263C155.471 90.1579 163.076 87.8216 167.55 87.3246C165.313 83.845 160.094 77.0351 154.129 71.6667Z" fill="#F0415A"/>
</svg>
