<svg width="201" height="200" viewBox="0 0 201 200" fill="none" xmlns="http://www.w3.org/2000/svg">
<path fill-rule="evenodd" clip-rule="evenodd" d="M85.5329 26.7649C78.8159 21.6599 61.674 14.513 46.8427 26.7649C32.0115 39.0168 32.6026 62.4995 34.752 72.7094C32.8713 72.4408 28.9487 75.9336 28.3039 92.0545C27.6591 108.175 30.1847 120.266 31.5281 124.296C33.1406 110.594 36.3648 95.2787 38.7829 87.2183C39.1531 87.9588 39.599 88.9449 40.1493 90.1622C43.1934 96.8955 49.4351 110.702 63.7703 129.133C77.3119 146.543 93.0567 157.882 98.4303 161.374C89.0264 159.494 69.2514 153.959 65.3824 146.866C61.5134 139.772 59.4714 134.775 58.934 133.163C58.5329 133.029 57.9462 132.246 56.8544 130.789C55.753 129.32 54.1375 127.164 51.6796 124.296C48.1578 120.188 45.9182 118.216 44.3385 116.825C43.7489 116.306 43.2513 115.868 42.8131 115.43V146.866C46.306 154.657 57.8056 170.886 75.861 173.465C92.7158 175.873 105.075 174.684 112.939 173.928C115.605 173.672 117.755 173.465 119.387 173.465C119.753 173.648 120.123 173.835 120.5 174.026C125.105 176.357 130.658 179.168 140.345 179.914C150.823 180.72 165.332 175.883 168.556 165.405C171.136 157.022 169.631 134.506 168.556 124.296C172.318 118.654 179.035 104.306 175.811 92.0545C171.78 76.7397 154.854 47.722 140.345 38.8555C134.541 38.8555 128.791 40.4676 126.642 41.2736C140.345 53.0956 167.105 81.2535 164.526 99.3089C161.302 121.878 158.884 130.745 146.793 140.417C137.121 148.155 129.329 153.314 126.642 154.926C129.06 157.076 135.186 161.374 140.345 161.374C146.512 161.374 149.73 157.688 154.935 151.725L155.66 150.896C160.173 145.737 161.302 136.924 161.302 133.163C163.183 143.91 164.687 166.211 155.66 169.435C144.375 173.465 133.896 167.823 122.612 161.374C111.327 154.926 72.6368 117.848 65.3824 104.951C69.4126 93.6666 76.6671 77.5457 83.1154 67.8731C87.0529 61.9669 92.6683 55.9397 96.8887 51.4097C98.9095 49.2406 100.611 47.4148 101.654 46.1099C110.252 54.7077 129.06 74.1603 135.508 83.188C141.957 92.2157 150.017 108.444 153.241 115.43C154.854 110.594 157.594 98.6641 155.66 89.6364C153.241 78.3518 114.551 36.4374 111.327 35.6313C114.769 35.6313 118.8 35.0433 123.418 34.3695C124.206 34.2544 125.013 34.1368 125.836 34.0192C122.847 26.5463 97.9632 26.6945 87.6718 26.7558C86.8628 26.7606 86.1439 26.7649 85.5329 26.7649ZM80.6976 33.213C74.2461 25.959 54.9044 25.6365 48.456 34.0194C40.3956 44.498 47.6535 79.1579 54.1018 83.1882C55.1099 81.5081 56.0479 79.863 56.9742 78.2384C60.4922 72.0685 63.8423 66.1932 70.2227 59.8128C72.4703 57.5653 74.326 55.3178 76.0973 53.1726C79.4079 49.1632 82.4232 45.5114 87.1491 42.8859C86.8131 42.9164 86.4771 42.9458 86.1408 42.9752C77.6025 43.722 68.8663 44.4861 54.9073 64.6491C52.4891 60.6189 51.68 55.7823 51.68 50.9462C55.7101 42.0797 72.6371 32.4072 80.6976 33.213Z" fill="#63A1FA"/>
<path d="M78.2798 101.727L86.3402 88.0243C97.0875 99.8463 112.527 118.734 120.628 124.304C129.742 130.886 134.299 129.133 138.733 127.521C137.927 129.401 135.509 133.808 132.285 136.387C128.255 139.611 118.603 140 107.297 133.163C98.2697 128.649 84.1908 110.325 78.2798 101.727Z" fill="#63A1FA"/>
<path d="M96.7549 67.7033C95.8942 69.1136 95.0093 70.5636 94.4004 71.9032C106.222 84.5313 130.511 111.722 133.091 119.46C137.121 116.236 137.927 111.399 137.121 108.981C136.476 107.047 114.552 75.1274 99.2367 63.0367C98.796 64.3588 97.7931 66.0022 96.7549 67.7033Z" fill="#63A1FA"/>
</svg>
