<svg width="201" height="200" viewBox="0 0 201 200" fill="none" xmlns="http://www.w3.org/2000/svg">
<path d="M46.3315 36.75H22.3315L59.8315 63.75C61.3315 64.75 63.2815 66.75 65.0815 66.75C66.8815 66.75 69.5815 64.5 70.3315 63.75L86.0815 48C84.5815 44.25 81.4315 36.75 80.8315 36.75C80.2315 36.75 68.5815 44.25 62.8315 48L46.3315 36.75Z" fill="#FFB802"/>
<path d="M89.8315 35.25L101.832 12L113.832 35.25L101.832 73.5L89.8315 35.25Z" fill="#FFB802"/>
<path d="M71.8315 76.5C60.0815 70.25 36.2815 57.75 35.0815 57.75C37.3315 63.25 42.5815 74.85 45.5815 77.25C48.5815 79.65 55.3315 84.25 58.3315 86.25V101.25C54.5815 106 46.9315 116.1 46.3315 118.5C45.7315 120.9 48.5815 121.5 50.0815 121.5H62.8315C65.0815 121.5 64.3315 118.5 66.5815 117.75C68.8315 117.75 69.5815 118.5 71.8315 120.75L80.8315 130.5C84.0815 145 91.0315 175.05 92.8315 179.25C94.6315 183.45 100.082 190 101.832 192C103.582 190 109.032 183.45 110.832 179.25C112.632 175.05 119.582 145 122.832 130.5L131.832 120.75C134.082 118.5 134.832 117.75 137.082 117.75C139.332 118.5 138.582 121.5 140.832 121.5H153.582C155.082 121.5 157.932 120.9 157.332 118.5C156.732 116.1 149.082 106 145.332 101.25V86.25C148.332 84.25 155.082 79.65 158.082 77.25C161.082 74.85 166.332 63.25 168.582 57.75C167.382 57.75 143.582 70.25 131.832 76.5L138.582 84L133.332 98.25L110.082 90.75C115.332 96.5 125.532 108 124.332 108C122.832 108 111.582 120.75 110.082 121.5C108.882 122.1 106.082 137.25 104.832 144.75L101.832 147L98.8315 144.75C97.5815 137.25 94.7815 122.1 93.5815 121.5C92.0815 120.75 80.8315 108 79.3315 108C78.1315 108 88.3315 96.5 93.5815 90.75L70.3315 98.25L65.0815 84L71.8315 76.5Z" fill="#FFB802"/>
<path d="M157.332 36.75H181.332L143.832 63.75C142.332 64.75 140.382 66.75 138.582 66.75C136.782 66.75 134.082 64.5 133.332 63.75L117.582 48C119.082 44.25 122.232 36.75 122.832 36.75C123.432 36.75 135.082 44.25 140.832 48L157.332 36.75Z" fill="#FFB802"/>
</svg>
