<svg width="201" height="200" viewBox="0 0 201 200" fill="none" xmlns="http://www.w3.org/2000/svg">
<path fill-rule="evenodd" clip-rule="evenodd" d="M96.598 15V31.8702H108.277V15L127.093 27.9771V48.0916L135.529 52.6336V42.2519L158.887 55.229V79.8855L150.452 87.6718V122.71L156.941 129.847V147.366L102.438 184.999L47.9338 147.366V129.847L54.4224 122.71V87.6718L45.9873 79.8855V55.229L69.3461 42.2519V52.6336L77.7812 48.0916V27.9771L96.598 15ZM96.598 156.816L108.277 149.313V59.1221L102.437 55.2293L96.598 59.1221V149.313V156.816ZM67.3987 77.2901L77.7804 71.4504V138.282L67.3987 132.443V77.2901ZM137.476 77.2901L127.094 71.4504V138.282L137.476 132.443V77.2901Z" fill="#02BC77"/>
</svg>
