<svg width="201" height="200" viewBox="0 0 201 200" fill="none" xmlns="http://www.w3.org/2000/svg">
<path d="M79.7033 33.9473L94.0726 10L112.83 23.9689C113.096 29.8226 113.868 42.1685 114.826 44.7228C115.784 47.2771 129.593 57.7605 136.378 62.6829C139.305 63.4811 145.557 65.4767 147.154 67.0731C149.149 69.0687 149.549 72.6607 149.549 77.051C149.549 80.5632 140.768 84.6341 136.378 86.2306H108.44C99.7925 74.2572 81.9387 49.1929 79.7033 44.7228C77.4679 40.2527 78.7719 35.6766 79.7033 33.9473Z" fill="#793DE8"/>
<path d="M68.5451 58.2927L74.354 50.6778L89.8128 79.8448C89.8128 79.8448 90.3877 81.8854 88.8828 82.9117C87.3778 83.938 85.7382 82.9117 85.7382 82.9117L68.5451 58.2927Z" fill="#793DE8"/>
<path d="M57.7528 58.2927C61.6122 56.2444 79.7033 95.0111 79.7033 95.0111C77.974 95.8093 72.7594 94.5321 65.7355 92.6164C58.7117 90.7006 51.8997 83.3037 49.3718 79.8448C49.5049 78.9135 50.3298 76.4124 52.5648 73.8581C54.7999 71.3037 56.9547 62.4168 57.7528 58.2927Z" fill="#793DE8"/>
<path d="M79.7033 105.388C72.9976 101.876 51.3668 97.0066 41.3896 95.0111C40.5912 96.7406 39.4733 101.716 41.3896 107.783C43.785 115.366 69.726 136.12 74.5153 143.304C79.3047 150.488 79.7033 157.672 79.7033 165.654C79.7033 172.04 92.7413 184.545 99.2604 190L114.826 171.242C110.169 166.984 100.538 157.273 99.2604 152.483C97.6639 146.497 96.4666 127.339 94.0726 120.953C91.6786 114.568 88.0854 109.778 79.7033 105.388Z" fill="#793DE8"/>
<path d="M118.418 161.264C104.05 154.878 99.2604 123.401 114.826 110.23C118.607 117.314 134.107 107.512 147.154 116.24C143.562 119.699 134.702 131.41 127.997 139.712C121.292 148.013 118.817 157.539 118.418 161.264Z" fill="#793DE8"/>
<path d="M158.728 105.388H118.607C117.276 102.727 119.216 96.9268 122.409 95.0111C126.4 92.6164 127.997 92.6164 136.378 92.6164C144.759 92.6164 141.985 88.4758 149.549 89.0244C160.178 89.7954 160.082 99.9747 158.728 105.388Z" fill="#793DE8"/>
</svg>
