<svg viewBox="0 0 24 24" fill="none" xmlns="http://www.w3.org/2000/svg">
<g clip-path="url(#clip0_397_3201)">
<path d="M11.9999 16.3521C15.8659 16.3521 19 13.1553 19 9.21184C19 5.26836 15.8659 2.07153 11.9999 2.07153C8.13382 2.07153 4.99976 5.26836 4.99976 9.21184C4.99976 13.1553 8.13382 16.3521 11.9999 16.3521Z" stroke="#111111" stroke-miterlimit="10"/>
<path d="M11.9997 16.3529C9.82637 16.3529 7.8839 15.3427 6.59985 13.7571V19.929C6.59985 20.7478 7.53 21.2196 8.19061 20.7359L11.9997 17.9469L15.8088 20.7359C16.4694 21.2196 17.3995 20.7478 17.3995 19.929V13.7571C16.1155 15.3427 14.1737 16.3529 11.9997 16.3529Z" stroke="#111111" stroke-miterlimit="10"/>
<path d="M12 17.9461V16.3528" stroke="#111111" stroke-miterlimit="10"/>
</g>
<defs>
<clipPath id="clip0_397_3201">
<rect width="24" height="24" fill="white"/>
</clipPath>
</defs>
</svg>
