<svg viewBox="0 0 24 24"  xmlns="http://www.w3.org/2000/svg">
<g clip-path="url(#clip0_210_13235)">
<path d="M13.6468 6.49446L15.8588 4.28245C16.0397 4.1016 16.2851 4 16.5409 4C16.7967 4 17.042 4.1016 17.2229 4.28245L19.7176 6.77711C19.8984 6.95802 20 7.20334 20 7.45914C20 7.71494 19.8984 7.96027 19.7176 8.14117L17.5055 10.3532M13.6468 6.49446L4.28265 15.8586C4.10173 16.0395 4.00005 16.2848 4 16.5407V19.0353C4 19.2912 4.10164 19.5365 4.28255 19.7175C4.46346 19.8984 4.70883 20 4.96468 20H7.45935C7.71518 19.9999 7.96051 19.8983 8.14138 19.7173L17.5055 10.3532M13.6468 6.49446L17.5055 10.3532" stroke="#111111" stroke-linecap="round" stroke-linejoin="round"/>
</g>
<defs>
<clipPath id="clip0_210_13235">
<rect width="24" height="24" fill="white"/>
</clipPath>
</defs>
</svg>
