<svg viewBox="0 0 24 24"  xmlns="http://www.w3.org/2000/svg">
<g clip-path="url(#clip0_49_4346)">
<path d="M20 20L16.1396 16.1396M16.1396 16.1396C16.7999 15.4793 17.3237 14.6953 17.6811 13.8326C18.0385 12.9698 18.2224 12.0451 18.2224 11.1112C18.2224 10.1774 18.0385 9.25264 17.6811 8.38987C17.3237 7.5271 16.7999 6.74316 16.1396 6.08283C15.4793 5.42249 14.6953 4.89868 13.8326 4.54131C12.9698 4.18394 12.0451 4 11.1112 4C10.1774 4 9.25264 4.18394 8.38987 4.54131C7.5271 4.89868 6.74316 5.42249 6.08283 6.08283C4.74921 7.41644 4 9.2252 4 11.1112C4 12.9972 4.74921 14.806 6.08283 16.1396C7.41644 17.4732 9.2252 18.2224 11.1112 18.2224C12.9972 18.2224 14.806 17.4732 16.1396 16.1396Z" stroke="#111111" stroke-linecap="round" stroke-linejoin="round"/>
</g>
<defs>
<clipPath id="clip0_49_4346">
<rect width="24" height="24" fill="white"/>
</clipPath>
</defs>
</svg>
