<svg width="24" height="24" viewBox="0 0 24 24" fill="none" xmlns="http://www.w3.org/2000/svg">
<g clip-path="url(#clip0_110_687)">
<circle cx="12" cy="8" r="4" stroke="#111111"/>
<path d="M16 14H12H9C6.23858 14 4 16.2386 4 19V20" stroke="#111111" stroke-linecap="round"/>
<path d="M16.8234 13.2472L17.9294 12.1412C18.0199 12.0508 18.1425 12 18.2704 12C18.3983 12 18.521 12.0508 18.6114 12.1412L19.8588 13.3886C19.9492 13.479 20 13.6017 20 13.7296C20 13.8575 19.9492 13.9801 19.8588 14.0706L18.7528 15.1766M16.8234 13.2472L12.1413 17.9293C12.0509 18.0197 12 18.1424 12 18.2703V19.5177C12 19.6456 12.0508 19.7683 12.1413 19.8587C12.2317 19.9492 12.3544 20 12.4823 20H13.7297C13.8576 20 13.9803 19.9491 14.0707 19.8587L18.7528 15.1766M16.8234 13.2472L18.7528 15.1766" stroke="#111111" stroke-linecap="round" stroke-linejoin="round"/>
</g>
<defs>
<clipPath id="clip0_110_687">
<rect width="24" height="24" fill="white"/>
</clipPath>
</defs>
</svg>
