<svg width="20" height="20" viewBox="0 0 20 20" fill="none" xmlns="http://www.w3.org/2000/svg">
<g clip-path="url(#clip0_1876_6733)">
<path d="M10.111 6.75955V4.58398M6.66472 7.63312L5.47313 5.73576M13.3353 7.63312L14.521 5.73576M17.4942 11.0884C17.4942 11.0884 14.1355 15.4173 9.99416 15.4173C5.8528 15.4173 2.5 11.0884 2.5 11.0884C2.5 11.0884 5.85864 6.75955 10 6.75955C14.1414 6.75955 17.5 11.0884 17.5 11.0884H17.4942ZM12.7044 11.0884C12.7044 12.5112 11.4936 13.6646 10 13.6646C8.50638 13.6646 7.29556 12.5112 7.29556 11.0884C7.29556 9.66565 8.50638 8.51225 10 8.51225C11.4936 8.51225 12.7044 9.66565 12.7044 11.0884Z" stroke="#828282" stroke-miterlimit="10" stroke-linecap="round" stroke-linejoin="round"/>
</g>
<defs>
<clipPath id="clip0_1876_6733">
<rect width="20" height="20" fill="white"/>
</clipPath>
</defs>
</svg>
