<svg viewBox="0 0 24 24"  xmlns="http://www.w3.org/2000/svg">
<g clip-path="url(#clip0_534_12313)">
<path d="M12.1332 8.11068V5.5M7.99766 9.15896L6.56776 6.88213M16.0023 9.15896L17.4252 6.88213M20.993 13.3053C20.993 13.3053 16.9626 18.5 11.993 18.5C7.02336 18.5 3 13.3053 3 13.3053C3 13.3053 7.03037 8.11068 12 8.11068C16.9696 8.11068 21 13.3053 21 13.3053H20.993ZM15.2453 13.3053C15.2453 15.0127 13.7923 16.3968 12 16.3968C10.2077 16.3968 8.75467 15.0127 8.75467 13.3053C8.75467 11.598 10.2077 10.2139 12 10.2139C13.7923 10.2139 15.2453 11.598 15.2453 13.3053Z" stroke="#111111" stroke-miterlimit="10" stroke-linecap="round" stroke-linejoin="round"/>
</g>
<defs>
<clipPath id="clip0_534_12313">
<rect width="24" height="24" fill="white"/>
</clipPath>
</defs>
</svg>
